<?xml version="1.0" encoding="UTF-8"?>
<svg width="1285px" height="303px" viewBox="0 0 1285 303" version="1.1" xmlns="http://www.w3.org/2000/svg" xmlns:xlink="http://www.w3.org/1999/xlink">
    <!-- Generator: Sketch 49.1 (51147) - http://www.bohemiancoding.com/sketch -->
    <title>ServiceNow Reverse Color</title>
    <desc>Created with Sketch.</desc>
    <defs>
        <polygon id="path-1" points="0 171.002 1153.001 171.002 1153.001 0 0 0"></polygon>
    </defs>
    <g id="ServiceNow-Reverse-Color" stroke="none" stroke-width="1" fill="none" fill-rule="evenodd">
        <g id="Page-1" transform="translate(66.000000, 66.000000)">
            <path d="M282.0012,52.7027 C269.2742,52.7027 258.4312,57.1997 249.7102,64.2957 L249.7102,53.8847 L220.2462,53.8847 L220.2462,168.6347 L250.8892,168.6347 L250.8892,95.2917 C255.1322,89.3757 265.7372,81.0947 278.7022,81.0947 C283.3172,81.0947 287.5432,81.4307 291.0002,82.9357 L291.0002,53.4897 C288.0702,52.9767 285.0642,52.7027 282.0012,52.7027" id="Fill-1" fill="#FFFFFF"></path>
            <path d="M14.8503,133.6187 C22.6273,140.7167 34.6503,144.9737 46.1983,144.9737 C54.4483,144.9737 60.8133,140.9517 60.8133,135.2747 C60.8133,118.0037 5.4223,124.1547 5.4223,87.2457 C5.4223,65.2417 26.6343,51.5177 49.2643,51.5177 C64.1143,51.5177 80.3783,57.1967 87.9203,63.1117 L73.5413,85.3517 C67.6493,81.0937 59.8703,77.5447 51.6203,77.5447 C43.1353,77.5447 36.0633,80.8567 36.0633,86.7707 C36.0633,101.6777 91.4543,95.7627 91.4543,135.5107 C91.4543,157.5147 70.0063,171.0017 45.9643,171.0017 C30.1703,171.0017 13.4363,165.5587 0.0003,155.6227 L14.8503,133.6187 Z" id="Fill-3" fill="#FFFFFF"></path>
            <path d="M175.8186,96.4722 C174.8746,86.2982 165.6836,76.3622 153.1916,76.3622 C140.4636,76.3622 130.0916,86.0612 128.6766,96.4722 L175.8186,96.4722 Z M204.3396,150.4162 C193.2606,163.6672 175.1106,171.0012 157.4326,171.0012 C123.2556,171.0012 97.5636,147.3412 97.5636,111.3782 C97.5636,79.4362 119.2486,51.5172 153.1916,51.5172 C184.7766,51.5172 207.1676,78.2542 207.1676,110.1952 C207.1676,113.2712 206.9326,116.3472 206.4616,118.9502 L127.2626,118.9502 C128.9126,135.0372 141.8766,146.1582 158.1406,146.1582 C171.1046,146.1582 181.4756,138.8232 186.8986,132.9092 L204.3396,150.4162 Z" id="Fill-5" fill="#FFFFFF"></path>
            <polygon id="Fill-7" fill="#FFFFFF" points="364.028 123.9175 395.377 53.8845 427.198 53.8845 374.634 168.6345 353.421 168.6345 300.858 53.8845 332.68 53.8845"></polygon>
            <path d="M452.9299,0 C464.0099,0 472.9659,8.519 472.9659,19.637 C472.9659,30.759 464.0099,39.276 452.9299,39.276 C441.8519,39.276 432.8949,30.759 432.8949,19.637 C432.8949,8.519 441.8519,0 452.9299,0" id="Fill-9" fill="#FFFFFF"></path>
            <mask id="mask-2" fill="white">
                <use xlink:href="#path-1"></use>
            </mask>
            <g id="Clip-12"></g>
            <polygon id="Fill-11" fill="#FFFFFF" mask="url(#mask-2)" points="437.609 168.634 468.252 168.634 468.252 53.884 437.609 53.884"></polygon>
            <path d="M594.946,145.2115 C581.511,163.1925 564.54,171.0015 543.091,171.0015 C507.733,171.0015 481.806,144.5015 481.806,111.3785 C481.806,78.0165 508.441,51.5175 543.327,51.5175 C563.126,51.5175 580.804,60.7465 591.411,74.4695 L569.725,93.6325 C563.598,85.5875 554.404,79.9095 543.327,79.9095 C525.648,79.9095 512.448,93.8695 512.448,111.3785 C512.448,129.3585 525.411,142.6085 544.033,142.6085 C556.526,142.6085 566.425,135.0375 571.376,127.4675 L594.946,145.2115 Z" id="Fill-13" fill="#FFFFFF" mask="url(#mask-2)"></path>
            <path d="M677.7184,96.4722 C676.7754,86.2982 667.5824,76.3622 655.0904,76.3622 C642.3634,76.3622 631.9914,86.0612 630.5764,96.4722 L677.7184,96.4722 Z M706.2394,150.4162 C695.1604,163.6672 677.0104,171.0012 659.3324,171.0012 C625.1554,171.0012 599.4634,147.3412 599.4634,111.3782 C599.4634,79.4362 621.1484,51.5172 655.0904,51.5172 C686.6764,51.5172 709.0674,78.2542 709.0674,110.1952 C709.0674,113.2712 708.8324,116.3472 708.3614,118.9502 L629.1624,118.9502 C630.8124,135.0372 643.7774,146.1582 660.0404,146.1582 C673.0034,146.1582 683.3754,138.8232 688.7984,132.9092 L706.2394,150.4162 Z" id="Fill-14" fill="#FFFFFF" mask="url(#mask-2)"></path>
            <polygon id="Fill-15" fill="#FFFFFF" mask="url(#mask-2)" points="1035.7395 168.6343 1012.9165 168.6343 967.4095 53.8843 998.0055 53.8843 1022.9525 119.4633 1047.4195 53.8843 1072.9915 53.8843 1097.2335 119.4633 1122.4055 53.8843 1153.0015 53.8843 1107.4955 168.6343 1084.6705 168.6343 1060.2055 103.2933"></polygon>
            <path d="M721.2463,168.6343 L721.2463,53.8843 L750.7103,53.8843 L750.7103,63.1113 C759.4313,56.0143 770.2743,51.5183 783.0013,51.5183 C798.7943,51.5183 813.1723,58.6153 822.6013,69.9733 C830.1443,78.9633 834.3853,90.5583 834.3853,110.1953 L834.3853,168.6343 L803.7443,168.6343 L803.7443,107.8283 C803.7443,96.4723 801.1513,90.5583 796.9093,86.2993 C792.9013,82.2773 786.7733,79.9093 779.7023,79.9093 C766.7373,79.9093 756.1323,88.1913 751.8893,94.1073 L751.8893,168.6343 L721.2463,168.6343 Z" id="Fill-16" fill="#FFFFFF" mask="url(#mask-2)"></path>
            <path d="M910.5934,152.4498 C891.1614,152.4498 877.8614,137.8198 877.8614,119.7208 C877.8614,101.6158 891.1614,86.7388 910.5934,86.7388 C930.0314,86.7388 943.3234,101.6158 943.3234,119.7208 C943.3234,137.8198 930.0314,152.4498 910.5934,152.4498 M910.9764,53.8848 C875.1034,53.6788 845.4284,83.0328 845.1314,119.0398 C844.9744,138.0998 852.9084,155.3108 865.6924,167.4128 C870.3414,171.8108 877.5294,172.2368 882.5724,168.3028 C890.0244,162.4868 899.5944,159.0198 910.5934,159.0198 C921.5914,159.0198 931.1614,162.4878 938.6134,168.3028 C943.6974,172.2688 950.9154,171.7618 955.5914,167.3168 C968.1934,155.3408 976.0564,138.3848 976.0564,119.5948 C976.0564,83.4368 946.9494,54.0918 910.9764,53.8848" id="Fill-17" fill="#81B5A1" mask="url(#mask-2)"></path>
            <polygon id="Fill-18" fill="#FFFFFF" mask="url(#mask-2)" points="1139.5422 157.107 1135.6342 157.107 1135.6342 168.634 1134.3602 168.634 1134.3602 157.107 1130.4502 157.107 1130.4502 155.908 1139.5422 155.908"></polygon>
            <polygon id="Fill-19" fill="#FFFFFF" mask="url(#mask-2)" points="1153.0012 168.6343 1151.7292 168.6343 1151.7292 157.8353 1147.2732 165.2893 1147.0922 165.2893 1142.6372 157.8353 1142.6372 168.6343 1141.3652 168.6343 1141.3652 155.9073 1142.9462 155.9073 1147.1832 162.9973 1151.4202 155.9073 1153.0012 155.9073"></polygon>
        </g>
    </g>
</svg>